<svg width="462" height="454" xmlns="http://www.w3.org/2000/svg" xmlns:xlink="http://www.w3.org/1999/xlink" xml:space="preserve" overflow="hidden"><defs><clipPath id="clip0"><rect x="408" y="62" width="462" height="454"/></clipPath><clipPath id="clip1"><rect x="408" y="63" width="462" height="453"/></clipPath><clipPath id="clip2"><rect x="408" y="63" width="462" height="454"/></clipPath></defs><g clip-path="url(#clip0)" transform="translate(-408 -62)"><g clip-path="url(#clip1)"><g clip-path="url(#clip2)"><path d="M601.22 329.728 544.299 266.913 442.933 383.244C508.243 518.171 688.071 549.697 794.878 442.884 824.811 412.951 845.9 374.4 854.743 331.316L717.995 221.331 624.794 321.564 659.487 359.89C669.693 371.004 652.686 386.424 642.48 375.311L601.209 329.729Z" fill="#44546A" fill-rule="nonzero" fill-opacity="1"/><path d="M744.314 213.16C745.901 151.025 670.84 119.051 627.294 162.592 595.32 194.566 602.348 247.858 640.899 270.54L708.475 197.974C718.226 187.315 730.697 202.281 744.306 213.169Z" fill="#44546A" fill-rule="nonzero" fill-opacity="1"/><path d="M632.962 278.927C565.386 236.522 595.544 131.07 675.82 131.07 723.893 131.07 761.311 172.795 755.188 221.778L858.374 304.774C868.125 177.561 767.439 69.1601 639.989 69.1601 489.191 69.1601 384.195 218.148 433.175 359.421L535.45 241.959C539.986 236.744 548.15 236.515 553.365 242.638L609.378 304.545 632.963 278.92Z" fill="#44546A" fill-rule="nonzero" fill-opacity="1"/><path d="M352.77 579.353C352.726 579.377 352.682 579.393 352.642 579.401 352.597 579.409 352.553 579.417 352.513 579.417 352.372 579.417 352.26 579.381 352.175 579.304 352.099 579.232 352.063 579.124 352.063 578.983 352.063 578.854 352.099 578.754 352.175 578.678 352.26 578.593 352.372 578.549 352.513 578.549 352.553 578.549 352.597 578.557 352.642 578.565 352.682 578.577 352.726 578.593 352.77 578.613L352.77 578.79C352.726 578.758 352.682 578.738 352.642 578.726 352.609 578.718 352.569 578.71 352.529 578.71 352.453 578.71 352.388 578.738 352.336 578.79 352.292 578.834 352.272 578.899 352.272 578.983 352.272 579.071 352.292 579.14 352.336 579.192 352.388 579.236 352.453 579.256 352.529 579.256 352.569 579.256 352.609 579.252 352.642 579.24 352.682 579.232 352.726 579.208 352.77 579.176Z" fill="#44546A" fill-rule="nonzero" fill-opacity="1"/><path d="M353.393 578.951C353.369 578.943 353.349 578.935 353.329 578.935 353.317 578.927 353.3 578.919 353.28 578.919 353.236 578.919 353.2 578.935 353.168 578.967 353.136 578.999 353.12 579.047 353.12 579.112L353.12 579.401 352.927 579.401 352.927 578.774 353.12 578.774 353.12 578.887C353.152 578.846 353.184 578.814 353.216 578.79 353.248 578.77 353.284 578.758 353.329 578.758L353.345 578.758C353.353 578.758 353.369 578.766 353.393 578.774Z" fill="#44546A" fill-rule="nonzero" fill-opacity="1"/><path d="M354.112 579.079 354.112 579.144 353.646 579.144C353.646 579.188 353.662 579.224 353.694 579.256 353.726 579.28 353.763 579.288 353.807 579.288 353.847 579.288 353.891 579.284 353.935 579.272 353.988 579.252 354.036 579.232 354.08 579.208L354.08 579.369C354.024 579.381 353.976 579.393 353.935 579.401 353.891 579.409 353.843 579.417 353.791 579.417 353.682 579.417 353.598 579.393 353.534 579.337 353.469 579.272 353.437 579.192 353.437 579.095 353.437 578.991 353.469 578.911 353.534 578.854 353.598 578.79 353.682 578.758 353.791 578.758 353.887 578.758 353.959 578.79 354.016 578.854 354.08 578.911 354.112 578.983 354.112 579.079ZM353.903 579.015C353.903 578.983 353.891 578.959 353.871 578.935 353.847 578.903 353.823 578.887 353.791 578.887 353.746 578.887 353.71 578.903 353.678 578.935 353.654 578.959 353.646 578.983 353.646 579.015Z" fill="#44546A" fill-rule="nonzero" fill-opacity="1"/><path d="M354.53 579.128C354.486 579.128 354.454 579.136 354.434 579.144 354.422 579.156 354.417 579.176 354.417 579.208 354.417 579.232 354.422 579.252 354.434 579.272 354.454 579.284 354.482 579.288 354.514 579.288 354.546 579.288 354.57 579.28 354.594 579.256 354.626 579.224 354.642 579.188 354.642 579.144L354.642 579.128ZM354.835 579.047 354.835 579.401 354.642 579.401 354.642 579.304C354.61 579.349 354.578 579.381 354.546 579.401 354.514 579.409 354.474 579.417 354.434 579.417 354.369 579.417 354.313 579.401 354.273 579.369 354.229 579.328 354.209 579.272 354.209 579.208 354.209 579.144 354.229 579.095 354.273 579.063 354.325 579.023 354.405 578.999 354.514 578.999L354.642 578.999 354.642 578.983C354.642 578.951 354.626 578.931 354.594 578.919 354.57 578.899 354.534 578.887 354.482 578.887 354.438 578.887 354.393 578.895 354.353 578.903 354.321 578.915 354.289 578.931 354.257 578.951L354.257 578.79C354.297 578.782 354.341 578.774 354.385 578.774 354.426 578.766 354.47 578.758 354.514 578.758 354.63 578.758 354.711 578.786 354.755 578.838 354.807 578.883 354.835 578.951 354.835 579.047Z" fill="#44546A" fill-rule="nonzero" fill-opacity="1"/><path d="M355.245 578.597 355.245 578.774 355.438 578.774 355.438 578.919 355.245 578.919 355.245 579.192C355.245 579.216 355.249 579.232 355.261 579.24 355.269 579.252 355.293 579.256 355.326 579.256L355.422 579.256 355.422 579.401 355.261 579.401C355.173 579.401 355.117 579.385 355.084 579.353 355.052 579.32 355.036 579.268 355.036 579.192L355.036 578.919 354.94 578.919 354.94 578.774 355.036 578.774 355.036 578.597Z" fill="#44546A" fill-rule="nonzero" fill-opacity="1"/><path d="M356.189 579.079 356.189 579.144 355.723 579.144C355.723 579.188 355.739 579.224 355.771 579.256 355.804 579.28 355.84 579.288 355.884 579.288 355.924 579.288 355.968 579.284 356.013 579.272 356.065 579.252 356.113 579.232 356.157 579.208L356.157 579.369C356.101 579.381 356.053 579.393 356.013 579.401 355.968 579.409 355.92 579.417 355.868 579.417 355.759 579.417 355.675 579.393 355.611 579.337 355.546 579.272 355.514 579.192 355.514 579.095 355.514 578.991 355.546 578.911 355.611 578.854 355.675 578.79 355.759 578.758 355.868 578.758 355.964 578.758 356.037 578.79 356.093 578.854 356.157 578.911 356.189 578.983 356.189 579.079ZM355.98 579.015C355.98 578.983 355.968 578.959 355.948 578.935 355.924 578.903 355.9 578.887 355.868 578.887 355.824 578.887 355.788 578.903 355.755 578.935 355.731 578.959 355.723 578.983 355.723 579.015Z" fill="#44546A" fill-rule="nonzero" fill-opacity="1"/><path d="M356.748 578.87 356.748 578.533 356.957 578.533 356.957 579.401 356.748 579.401 356.748 579.304C356.724 579.349 356.7 579.381 356.667 579.401 356.635 579.409 356.595 579.417 356.555 579.417 356.467 579.417 356.398 579.393 356.346 579.337 356.302 579.272 356.282 579.192 356.282 579.095 356.282 578.999 356.302 578.919 356.346 578.854 356.398 578.79 356.467 578.758 356.555 578.758 356.595 578.758 356.635 578.77 356.667 578.79 356.7 578.802 356.724 578.83 356.748 578.87ZM356.619 579.272C356.659 579.272 356.692 579.256 356.716 579.224 356.736 579.192 356.748 579.152 356.748 579.095 356.748 579.031 356.736 578.983 356.716 578.951 356.692 578.919 356.659 578.903 356.619 578.903 356.575 578.903 356.543 578.919 356.523 578.951 356.499 578.983 356.491 579.031 356.491 579.095 356.491 579.152 356.499 579.192 356.523 579.224 356.543 579.256 356.575 579.272 356.619 579.272Z" fill="#44546A" fill-rule="nonzero" fill-opacity="1"/><path d="M357.877 579.272C357.917 579.272 357.949 579.256 357.973 579.224 357.993 579.192 358.005 579.152 358.005 579.095 358.005 579.031 357.993 578.983 357.973 578.951 357.949 578.919 357.917 578.903 357.877 578.903 357.833 578.903 357.796 578.919 357.764 578.951 357.74 578.983 357.732 579.031 357.732 579.095 357.732 579.152 357.74 579.192 357.764 579.224 357.796 579.256 357.833 579.272 357.877 579.272ZM357.732 578.87C357.764 578.83 357.796 578.802 357.829 578.79 357.861 578.77 357.897 578.758 357.941 578.758 358.013 578.758 358.078 578.79 358.134 578.854 358.186 578.919 358.214 578.999 358.214 579.095 358.214 579.192 358.186 579.272 358.134 579.337 358.078 579.393 358.013 579.417 357.941 579.417 357.897 579.417 357.861 579.409 357.829 579.401 357.796 579.381 357.764 579.349 357.732 579.304L357.732 579.401 357.539 579.401 357.539 578.533 357.732 578.533Z" fill="#44546A" fill-rule="nonzero" fill-opacity="1"/><path d="M358.271 578.774 358.463 578.774 358.64 579.208 358.785 578.774 358.978 578.774 358.72 579.465C358.688 579.529 358.656 579.57 358.624 579.594 358.592 579.626 358.544 579.642 358.479 579.642L358.367 579.642 358.367 579.513 358.431 579.513C358.463 579.513 358.483 579.505 358.495 579.497 358.516 579.485 358.532 579.469 358.544 579.449L358.544 579.417Z" fill="#44546A" fill-rule="nonzero" fill-opacity="1"/><path d="M359.95 578.951C359.926 578.943 359.906 578.935 359.886 578.935 359.874 578.927 359.858 578.919 359.838 578.919 359.793 578.919 359.757 578.935 359.725 578.967 359.693 578.999 359.677 579.047 359.677 579.112L359.677 579.401 359.484 579.401 359.484 578.774 359.677 578.774 359.677 578.887C359.709 578.846 359.741 578.814 359.773 578.79 359.805 578.77 359.842 578.758 359.886 578.758L359.902 578.758C359.91 578.758 359.926 578.766 359.95 578.774Z" fill="#44546A" fill-rule="nonzero" fill-opacity="1"/><path d="M360.669 579.079 360.669 579.144 360.203 579.144C360.203 579.188 360.219 579.224 360.251 579.256 360.284 579.28 360.32 579.288 360.364 579.288 360.404 579.288 360.448 579.284 360.492 579.272 360.545 579.252 360.593 579.232 360.637 579.208L360.637 579.369C360.581 579.381 360.533 579.393 360.492 579.401 360.448 579.409 360.4 579.417 360.348 579.417 360.239 579.417 360.155 579.393 360.091 579.337 360.026 579.272 359.994 579.192 359.994 579.095 359.994 578.991 360.026 578.911 360.091 578.854 360.155 578.79 360.239 578.758 360.348 578.758 360.444 578.758 360.517 578.79 360.573 578.854 360.637 578.911 360.669 578.983 360.669 579.079ZM360.46 579.015C360.46 578.983 360.448 578.959 360.428 578.935 360.404 578.903 360.38 578.887 360.348 578.887 360.304 578.887 360.267 578.903 360.235 578.935 360.211 578.959 360.203 578.983 360.203 579.015Z" fill="#44546A" fill-rule="nonzero" fill-opacity="1"/><path d="M360.729 578.774 360.922 578.774 361.083 579.208 361.244 578.774 361.437 578.774 361.196 579.401 360.971 579.401Z" fill="#44546A" fill-rule="nonzero" fill-opacity="1"/><path d="M361.838 578.903C361.794 578.903 361.762 578.919 361.742 578.951 361.718 578.983 361.71 579.031 361.71 579.095 361.71 579.152 361.718 579.192 361.742 579.224 361.762 579.256 361.794 579.272 361.838 579.272 361.879 579.272 361.911 579.256 361.935 579.224 361.967 579.192 361.983 579.152 361.983 579.095 361.983 579.031 361.967 578.983 361.935 578.951 361.911 578.919 361.879 578.903 361.838 578.903ZM361.838 578.758C361.943 578.758 362.031 578.79 362.096 578.854 362.16 578.911 362.192 578.991 362.192 579.095 362.192 579.192 362.16 579.272 362.096 579.337 362.031 579.393 361.943 579.417 361.838 579.417 361.73 579.417 361.646 579.393 361.581 579.337 361.525 579.272 361.501 579.192 361.501 579.095 361.501 578.991 361.525 578.911 361.581 578.854 361.646 578.79 361.73 578.758 361.838 578.758Z" fill="#44546A" fill-rule="nonzero" fill-opacity="1"/><path d="M362.554 579.24 362.923 579.24 362.923 579.401 362.329 579.401 362.329 579.24 362.634 578.983C362.654 578.951 362.67 578.927 362.682 578.903 362.69 578.883 362.698 578.854 362.698 578.822 362.698 578.79 362.686 578.766 362.666 578.742 362.642 578.71 362.61 578.694 362.57 578.694 362.525 578.694 362.481 578.706 362.441 578.726 362.409 578.738 362.369 578.758 362.329 578.79L362.329 578.597C362.369 578.589 362.413 578.577 362.457 578.565 362.509 578.557 362.558 578.549 362.602 578.549 362.706 578.549 362.787 578.573 362.843 578.613 362.895 578.658 362.923 578.722 362.923 578.806 362.923 578.85 362.911 578.895 362.891 578.935 362.867 578.967 362.819 579.015 362.746 579.079Z" fill="#44546A" fill-rule="nonzero" fill-opacity="1"/><path d="M363.152 578.565 363.683 578.565 363.683 578.726 363.313 578.726 363.313 578.854 363.361 578.854C363.381 578.846 363.397 578.838 363.409 578.838 363.514 578.838 363.594 578.866 363.65 578.919 363.703 578.975 363.731 579.043 363.731 579.128 363.731 579.224 363.699 579.3 363.634 579.353 363.578 579.397 363.498 579.417 363.393 579.417 363.337 579.417 363.289 579.409 363.249 579.401 363.204 579.393 363.156 579.381 363.104 579.369L363.104 579.192C363.156 579.216 363.2 579.236 363.233 579.256 363.273 579.268 363.317 579.272 363.361 579.272 363.413 579.272 363.45 579.264 363.474 579.24 363.506 579.208 363.522 579.172 363.522 579.128 363.522 579.087 363.506 579.055 363.474 579.031 363.45 578.999 363.413 578.983 363.361 578.983 363.329 578.983 363.289 578.991 363.249 578.999 363.217 579.011 363.184 579.023 363.152 579.031Z" fill="#44546A" fill-rule="nonzero" fill-opacity="1"/><path d="M364.341 578.983C364.341 578.878 364.329 578.802 364.309 578.758 364.285 578.718 364.253 578.694 364.213 578.694 364.157 578.694 364.121 578.718 364.1 578.758 364.088 578.802 364.084 578.878 364.084 578.983 364.084 579.091 364.088 579.168 364.1 579.208 364.121 579.252 364.157 579.272 364.213 579.272 364.253 579.272 364.285 579.252 364.309 579.208 364.329 579.168 364.341 579.091 364.341 578.983ZM364.55 578.983C364.55 579.124 364.518 579.232 364.454 579.304 364.398 579.381 364.317 579.417 364.213 579.417 364.092 579.417 364.004 579.381 363.94 579.304 363.883 579.232 363.859 579.124 363.859 578.983 363.859 578.846 363.883 578.738 363.94 578.662 364.004 578.589 364.092 578.549 364.213 578.549 364.317 578.549 364.398 578.589 364.454 578.662 364.518 578.738 364.55 578.846 364.55 578.983Z" fill="#44546A" fill-rule="nonzero" fill-opacity="1"/><path d="M352.513 579.665 352.513 579.794 352.4 579.794C352.368 579.794 352.344 579.802 352.336 579.81 352.324 579.822 352.32 579.838 352.32 579.858L352.32 579.906 352.497 579.906 352.497 580.051 352.32 580.051 352.32 580.533 352.127 580.533 352.127 580.051 352.015 580.051 352.015 579.906 352.127 579.906 352.127 579.858C352.127 579.794 352.143 579.746 352.175 579.714 352.216 579.682 352.276 579.665 352.352 579.665Z" fill="#44546A" fill-rule="nonzero" fill-opacity="1"/><path d="M353.055 580.083C353.031 580.075 353.011 580.067 352.991 580.067 352.979 580.059 352.963 580.051 352.943 580.051 352.899 580.051 352.863 580.067 352.83 580.099 352.798 580.131 352.782 580.18 352.782 580.244L352.782 580.533 352.589 580.533 352.589 579.906 352.782 579.906 352.782 580.019C352.814 579.979 352.846 579.947 352.879 579.923 352.911 579.902 352.947 579.89 352.991 579.89L353.007 579.89C353.015 579.89 353.031 579.898 353.055 579.906Z" fill="#44546A" fill-rule="nonzero" fill-opacity="1"/><path d="M353.437 580.035C353.393 580.035 353.361 580.051 353.341 580.083 353.316 580.115 353.308 580.164 353.308 580.228 353.308 580.284 353.316 580.324 353.341 580.356 353.361 580.389 353.393 580.405 353.437 580.405 353.477 580.405 353.509 580.389 353.533 580.356 353.566 580.324 353.582 580.284 353.582 580.228 353.582 580.164 353.566 580.115 353.533 580.083 353.509 580.051 353.477 580.035 353.437 580.035ZM353.437 579.89C353.542 579.89 353.63 579.923 353.694 579.987 353.758 580.043 353.791 580.123 353.791 580.228 353.791 580.324 353.758 580.405 353.694 580.469 353.63 580.525 353.542 580.549 353.437 580.549 353.329 580.549 353.244 580.525 353.18 580.469 353.124 580.405 353.1 580.324 353.1 580.228 353.1 580.123 353.124 580.043 353.18 579.987 353.244 579.923 353.329 579.89 353.437 579.89Z" fill="#44546A" fill-rule="nonzero" fill-opacity="1"/><path d="M354.506 580.019C354.526 579.979 354.554 579.947 354.586 579.923 354.626 579.902 354.671 579.89 354.715 579.89 354.779 579.89 354.827 579.914 354.859 579.955 354.9 579.999 354.924 580.063 354.924 580.148L354.924 580.533 354.731 580.533 354.731 580.212 354.731 580.196 354.731 580.164C354.731 580.123 354.723 580.095 354.715 580.083 354.703 580.063 354.683 580.051 354.65 580.051 354.606 580.051 354.574 580.067 354.554 580.099 354.53 580.123 354.522 580.164 354.522 580.228L354.522 580.533 354.329 580.533 354.329 580.212C354.329 580.14 354.321 580.095 354.313 580.083 354.301 580.063 354.281 580.051 354.249 580.051 354.204 580.051 354.172 580.067 354.152 580.099 354.128 580.123 354.12 580.164 354.12 580.228L354.12 580.533 353.927 580.533 353.927 579.906 354.12 579.906 354.12 580.003C354.152 579.971 354.184 579.947 354.216 579.923 354.249 579.902 354.281 579.89 354.313 579.89 354.353 579.89 354.393 579.902 354.425 579.923 354.458 579.947 354.482 579.979 354.506 580.019Z" fill="#44546A" fill-rule="nonzero" fill-opacity="1"/><path d="M355.727 579.73 355.727 579.906 355.92 579.906 355.92 580.051 355.727 580.051 355.727 580.324C355.727 580.348 355.731 580.365 355.743 580.373 355.751 580.385 355.775 580.389 355.808 580.389L355.904 580.389 355.904 580.533 355.743 580.533C355.655 580.533 355.599 580.517 355.567 580.485 355.534 580.453 355.518 580.401 355.518 580.324L355.518 580.051 355.422 580.051 355.422 579.906 355.518 579.906 355.518 579.73Z" fill="#44546A" fill-rule="nonzero" fill-opacity="1"/><path d="M356.671 580.148 356.671 580.533 356.479 580.533 356.479 580.244C356.479 580.192 356.47 580.156 356.462 580.131L356.462 580.083C356.45 580.075 356.434 580.067 356.414 580.067 356.402 580.059 356.39 580.051 356.382 580.051 356.338 580.051 356.302 580.067 356.27 580.099 356.245 580.131 356.237 580.176 356.237 580.228L356.237 580.533 356.045 580.533 356.045 579.665 356.237 579.665 356.237 580.003C356.27 579.963 356.302 579.935 356.334 579.923 356.366 579.902 356.402 579.89 356.446 579.89 356.519 579.89 356.575 579.914 356.607 579.955 356.647 579.999 356.671 580.063 356.671 580.148Z" fill="#44546A" fill-rule="nonzero" fill-opacity="1"/><path d="M357.479 580.212 357.479 580.276 357.013 580.276C357.013 580.32 357.029 580.357 357.061 580.389 357.093 580.413 357.129 580.421 357.174 580.421 357.214 580.421 357.258 580.417 357.302 580.405 357.354 580.385 357.403 580.365 357.447 580.34L357.447 580.501C357.391 580.513 357.342 580.525 357.302 580.533 357.258 580.541 357.21 580.549 357.158 580.549 357.049 580.549 356.965 580.525 356.9 580.469 356.836 580.405 356.804 580.324 356.804 580.228 356.804 580.123 356.836 580.043 356.9 579.987 356.965 579.923 357.049 579.89 357.158 579.89 357.254 579.89 357.326 579.923 357.383 579.987 357.447 580.043 357.479 580.115 357.479 580.212ZM357.27 580.148C357.27 580.115 357.258 580.091 357.238 580.067 357.214 580.035 357.19 580.019 357.158 580.019 357.113 580.019 357.077 580.035 357.045 580.067 357.021 580.091 357.013 580.115 357.013 580.148Z" fill="#44546A" fill-rule="nonzero" fill-opacity="1"/><path d="M358.033 579.698 358.258 579.698 358.564 580.276 358.564 579.698 358.773 579.698 358.773 580.533 358.532 580.533 358.226 579.955 358.226 580.533 358.033 580.533Z" fill="#44546A" fill-rule="nonzero" fill-opacity="1"/><path d="M359.255 580.035C359.211 580.035 359.179 580.051 359.158 580.083 359.134 580.115 359.126 580.164 359.126 580.228 359.126 580.284 359.134 580.324 359.158 580.356 359.179 580.389 359.211 580.405 359.255 580.405 359.295 580.405 359.327 580.389 359.351 580.356 359.383 580.324 359.4 580.284 359.4 580.228 359.4 580.164 359.383 580.115 359.351 580.083 359.327 580.051 359.295 580.035 359.255 580.035ZM359.255 579.89C359.359 579.89 359.448 579.923 359.512 579.987 359.576 580.043 359.608 580.123 359.608 580.228 359.608 580.324 359.576 580.405 359.512 580.469 359.448 580.525 359.359 580.549 359.255 580.549 359.146 580.549 359.062 580.525 358.998 580.469 358.942 580.405 358.917 580.324 358.917 580.228 358.917 580.123 358.942 580.043 358.998 579.987 359.062 579.923 359.146 579.89 359.255 579.89Z" fill="#44546A" fill-rule="nonzero" fill-opacity="1"/><path d="M359.745 580.292 359.745 579.906 359.938 579.906 359.938 579.971 359.938 580.099 359.938 580.196 359.938 580.308C359.938 580.332 359.942 580.348 359.954 580.357 359.962 580.369 359.974 580.381 359.986 580.389 359.994 580.401 360.01 580.405 360.034 580.405 360.075 580.405 360.107 580.389 360.131 580.357 360.151 580.324 360.163 580.276 360.163 580.212L360.163 579.906 360.372 579.906 360.372 580.533 360.163 580.533 360.163 580.437C360.131 580.481 360.099 580.513 360.066 580.533 360.034 580.541 359.994 580.549 359.954 580.549 359.89 580.549 359.833 580.529 359.793 580.485 359.761 580.445 359.745 580.381 359.745 580.292Z" fill="#44546A" fill-rule="nonzero" fill-opacity="1"/><path d="M361.179 580.148 361.179 580.533 360.987 580.533 360.987 580.244C360.987 580.192 360.979 580.156 360.971 580.131L360.971 580.083C360.958 580.075 360.942 580.067 360.922 580.067 360.91 580.059 360.898 580.051 360.89 580.051 360.846 580.051 360.81 580.067 360.778 580.099 360.754 580.131 360.746 580.176 360.746 580.228L360.746 580.533 360.553 580.533 360.553 579.906 360.746 579.906 360.746 580.003C360.778 579.963 360.81 579.935 360.842 579.923 360.874 579.902 360.91 579.89 360.954 579.89 361.027 579.89 361.083 579.914 361.115 579.955 361.155 579.999 361.179 580.063 361.179 580.148Z" fill="#44546A" fill-rule="nonzero" fill-opacity="1"/><path d="M361.77 579.698 362.124 579.698C362.228 579.698 362.308 579.726 362.365 579.778 362.417 579.822 362.445 579.886 362.445 579.971 362.445 580.059 362.417 580.127 362.365 580.18 362.308 580.224 362.228 580.244 362.124 580.244L361.979 580.244 361.979 580.533 361.77 580.533ZM361.979 579.858 361.979 580.083 362.091 580.083C362.132 580.083 362.164 580.079 362.188 580.067 362.208 580.047 362.22 580.015 362.22 579.971 362.22 579.939 362.208 579.914 362.188 579.89 362.164 579.87 362.132 579.858 362.091 579.858Z" fill="#44546A" fill-rule="nonzero" fill-opacity="1"/><path d="M363.052 580.083C363.028 580.075 363.008 580.067 362.987 580.067 362.975 580.059 362.959 580.051 362.939 580.051 362.895 580.051 362.859 580.067 362.827 580.099 362.795 580.131 362.779 580.18 362.779 580.244L362.779 580.533 362.586 580.533 362.586 579.906 362.779 579.906 362.779 580.019C362.811 579.979 362.843 579.947 362.875 579.923 362.907 579.902 362.943 579.89 362.987 579.89L363.004 579.89C363.012 579.89 363.028 579.898 363.052 579.906Z" fill="#44546A" fill-rule="nonzero" fill-opacity="1"/><path d="M363.433 580.035C363.389 580.035 363.357 580.051 363.337 580.083 363.313 580.115 363.305 580.164 363.305 580.228 363.305 580.284 363.313 580.324 363.337 580.356 363.357 580.389 363.389 580.405 363.433 580.405 363.474 580.405 363.506 580.389 363.53 580.356 363.562 580.324 363.578 580.284 363.578 580.228 363.578 580.164 363.562 580.115 363.53 580.083 363.506 580.051 363.474 580.035 363.433 580.035ZM363.433 579.89C363.538 579.89 363.626 579.923 363.691 579.987 363.755 580.043 363.787 580.123 363.787 580.228 363.787 580.324 363.755 580.405 363.691 580.469 363.626 580.525 363.538 580.549 363.433 580.549 363.325 580.549 363.241 580.525 363.176 580.469 363.12 580.405 363.096 580.324 363.096 580.228 363.096 580.123 363.12 580.043 363.176 579.987 363.241 579.923 363.325 579.89 363.433 579.89Z" fill="#44546A" fill-rule="nonzero" fill-opacity="1"/><path d="M363.924 579.906 364.116 579.906 364.116 580.517C364.116 580.602 364.092 580.666 364.052 580.71 364.02 580.75 363.964 580.774 363.892 580.774L363.795 580.774 363.795 580.646 363.827 580.646C363.859 580.646 363.879 580.634 363.892 580.614 363.912 580.602 363.924 580.569 363.924 580.517ZM363.924 579.665 364.116 579.665 364.116 579.826 363.924 579.826Z" fill="#44546A" fill-rule="nonzero" fill-opacity="1"/><path d="M364.936 580.212 364.936 580.276 364.47 580.276C364.47 580.32 364.486 580.357 364.518 580.389 364.55 580.413 364.587 580.421 364.631 580.421 364.671 580.421 364.715 580.417 364.759 580.405 364.812 580.385 364.86 580.365 364.904 580.34L364.904 580.501C364.848 580.513 364.8 580.525 364.759 580.533 364.715 580.541 364.667 580.549 364.615 580.549 364.506 580.549 364.422 580.525 364.358 580.469 364.293 580.405 364.261 580.324 364.261 580.228 364.261 580.123 364.293 580.043 364.358 579.987 364.422 579.923 364.506 579.89 364.615 579.89 364.711 579.89 364.783 579.923 364.84 579.987 364.904 580.043 364.936 580.115 364.936 580.212ZM364.727 580.148C364.727 580.115 364.715 580.091 364.695 580.067 364.671 580.035 364.647 580.019 364.615 580.019 364.57 580.019 364.534 580.035 364.502 580.067 364.478 580.091 364.47 580.115 364.47 580.148Z" fill="#44546A" fill-rule="nonzero" fill-opacity="1"/><path d="M365.579 579.923 365.579 580.099C365.555 580.079 365.531 580.063 365.499 580.051 365.475 580.043 365.45 580.035 365.418 580.035 365.362 580.035 365.322 580.051 365.29 580.083 365.258 580.115 365.241 580.164 365.241 580.228 365.241 580.284 365.258 580.324 365.29 580.357 365.322 580.389 365.362 580.405 365.418 580.405 365.45 580.405 365.475 580.401 365.499 580.389 365.531 580.381 365.555 580.369 365.579 580.357L365.579 580.517C365.547 580.529 365.515 580.533 365.483 580.533 365.45 580.541 365.418 580.549 365.386 580.549 365.278 580.549 365.193 580.525 365.129 580.469 365.065 580.405 365.033 580.324 365.033 580.228 365.033 580.123 365.065 580.043 365.129 579.987 365.193 579.923 365.278 579.89 365.386 579.89 365.418 579.89 365.45 579.898 365.483 579.906 365.515 579.906 365.547 579.914 365.579 579.923Z" fill="#44546A" fill-rule="nonzero" fill-opacity="1"/><path d="M365.977 579.73 365.977 579.906 366.17 579.906 366.17 580.051 365.977 580.051 365.977 580.324C365.977 580.348 365.981 580.365 365.993 580.373 366.001 580.385 366.025 580.389 366.057 580.389L366.153 580.389 366.153 580.533 365.993 580.533C365.904 580.533 365.848 580.517 365.816 580.485 365.784 580.453 365.768 580.401 365.768 580.324L365.768 580.051 365.671 580.051 365.671 579.906 365.768 579.906 365.768 579.73Z" fill="#44546A" fill-rule="nonzero" fill-opacity="1"/></g></g></g></svg>